<svg xmlns="http://www.w3.org/2000/svg" xmlns:xlink="http://www.w3.org/1999/xlink" version="1.1" width="256" height="256" viewBox="0 0 256 256" xml:space="preserve">

<defs>
</defs>
<g style="stroke: none; stroke-width: 0; stroke-dasharray: none; stroke-linecap: butt; stroke-linejoin: miter; stroke-miterlimit: 10; fill: none; fill-rule: nonzero; opacity: 1;" transform="translate(1.4065934065934016 1.4065934065934016) scale(2.81 2.81)" >
	<rect x="0" y="74.84" rx="0" ry="0" width="64.32" height="2.7" style="stroke: none; stroke-width: 1; stroke-dasharray: none; stroke-linecap: butt; stroke-linejoin: miter; stroke-miterlimit: 10; fill: rgb(61,141,50); fill-rule: nonzero; opacity: 1;" transform=" matrix(1 0 0 1 0 0) "/>
	<rect x="0" y="72.14" rx="0" ry="0" width="64.32" height="2.7" style="stroke: none; stroke-width: 1; stroke-dasharray: none; stroke-linecap: butt; stroke-linejoin: miter; stroke-miterlimit: 10; fill: rgb(68,155,56); fill-rule: nonzero; opacity: 1;" transform=" matrix(1 0 0 1 0 0) "/>
	<rect x="0" y="69.44" rx="0" ry="0" width="64.32" height="2.7" style="stroke: none; stroke-width: 1; stroke-dasharray: none; stroke-linecap: butt; stroke-linejoin: miter; stroke-miterlimit: 10; fill: rgb(61,141,50); fill-rule: nonzero; opacity: 1;" transform=" matrix(1 0 0 1 0 0) "/>
	<rect x="0" y="66.74" rx="0" ry="0" width="64.32" height="2.7" style="stroke: none; stroke-width: 1; stroke-dasharray: none; stroke-linecap: butt; stroke-linejoin: miter; stroke-miterlimit: 10; fill: rgb(68,155,56); fill-rule: nonzero; opacity: 1;" transform=" matrix(1 0 0 1 0 0) "/>
	<rect x="0" y="64.61" rx="0" ry="0" width="64.32" height="2.7" style="stroke: none; stroke-width: 1; stroke-dasharray: none; stroke-linecap: butt; stroke-linejoin: miter; stroke-miterlimit: 10; fill: rgb(61,141,50); fill-rule: nonzero; opacity: 1;" transform=" matrix(1 0 0 1 0 0) "/>
	<rect x="0" y="61.91" rx="0" ry="0" width="64.32" height="2.7" style="stroke: none; stroke-width: 1; stroke-dasharray: none; stroke-linecap: butt; stroke-linejoin: miter; stroke-miterlimit: 10; fill: rgb(68,155,56); fill-rule: nonzero; opacity: 1;" transform=" matrix(1 0 0 1 0 0) "/>
	<rect x="0" y="59.21" rx="0" ry="0" width="64.32" height="2.7" style="stroke: none; stroke-width: 1; stroke-dasharray: none; stroke-linecap: butt; stroke-linejoin: miter; stroke-miterlimit: 10; fill: rgb(61,141,50); fill-rule: nonzero; opacity: 1;" transform=" matrix(1 0 0 1 0 0) "/>
	<rect x="0" y="56.51" rx="0" ry="0" width="64.32" height="2.7" style="stroke: none; stroke-width: 1; stroke-dasharray: none; stroke-linecap: butt; stroke-linejoin: miter; stroke-miterlimit: 10; fill: rgb(68,155,56); fill-rule: nonzero; opacity: 1;" transform=" matrix(1 0 0 1 0 0) "/>
	<rect x="18.24" y="74.83" rx="0" ry="0" width="16.59" height="2.76" style="stroke: none; stroke-width: 1; stroke-dasharray: none; stroke-linecap: butt; stroke-linejoin: miter; stroke-miterlimit: 10; fill: rgb(255,195,54); fill-rule: nonzero; opacity: 1;" transform=" matrix(1 0 0 1 0 0) "/>
	<rect x="18.24" y="72.07" rx="0" ry="0" width="16.59" height="2.76" style="stroke: none; stroke-width: 1; stroke-dasharray: none; stroke-linecap: butt; stroke-linejoin: miter; stroke-miterlimit: 10; fill: rgb(234,176,40); fill-rule: nonzero; opacity: 1;" transform=" matrix(1 0 0 1 0 0) "/>
	<rect x="18.24" y="69.31" rx="0" ry="0" width="16.59" height="2.76" style="stroke: none; stroke-width: 1; stroke-dasharray: none; stroke-linecap: butt; stroke-linejoin: miter; stroke-miterlimit: 10; fill: rgb(255,195,54); fill-rule: nonzero; opacity: 1;" transform=" matrix(1 0 0 1 0 0) "/>
	<rect x="18.24" y="66.55" rx="0" ry="0" width="16.59" height="2.76" style="stroke: none; stroke-width: 1; stroke-dasharray: none; stroke-linecap: butt; stroke-linejoin: miter; stroke-miterlimit: 10; fill: rgb(234,176,40); fill-rule: nonzero; opacity: 1;" transform=" matrix(1 0 0 1 0 0) "/>
	<rect x="18.24" y="63.79" rx="0" ry="0" width="16.59" height="2.76" style="stroke: none; stroke-width: 1; stroke-dasharray: none; stroke-linecap: butt; stroke-linejoin: miter; stroke-miterlimit: 10; fill: rgb(255,195,54); fill-rule: nonzero; opacity: 1;" transform=" matrix(1 0 0 1 0 0) "/>
	<rect x="18.24" y="61.09" rx="0" ry="0" width="16.59" height="2.76" style="stroke: none; stroke-width: 1; stroke-dasharray: none; stroke-linecap: butt; stroke-linejoin: miter; stroke-miterlimit: 10; fill: rgb(234,176,40); fill-rule: nonzero; opacity: 1;" transform=" matrix(1 0 0 1 0 0) "/>
	<rect x="18.24" y="58.33" rx="0" ry="0" width="16.59" height="2.76" style="stroke: none; stroke-width: 1; stroke-dasharray: none; stroke-linecap: butt; stroke-linejoin: miter; stroke-miterlimit: 10; fill: rgb(255,195,54); fill-rule: nonzero; opacity: 1;" transform=" matrix(1 0 0 1 0 0) "/>
	<rect x="18.24" y="55.56" rx="0" ry="0" width="16.59" height="2.76" style="stroke: none; stroke-width: 1; stroke-dasharray: none; stroke-linecap: butt; stroke-linejoin: miter; stroke-miterlimit: 10; fill: rgb(234,176,40); fill-rule: nonzero; opacity: 1;" transform=" matrix(1 0 0 1 0 0) "/>
	<rect x="18.24" y="52.8" rx="0" ry="0" width="16.59" height="2.76" style="stroke: none; stroke-width: 1; stroke-dasharray: none; stroke-linecap: butt; stroke-linejoin: miter; stroke-miterlimit: 10; fill: rgb(255,195,54); fill-rule: nonzero; opacity: 1;" transform=" matrix(1 0 0 1 0 0) "/>
	<rect x="18.24" y="50.02" rx="0" ry="0" width="16.59" height="2.76" style="stroke: none; stroke-width: 1; stroke-dasharray: none; stroke-linecap: butt; stroke-linejoin: miter; stroke-miterlimit: 10; fill: rgb(234,176,40); fill-rule: nonzero; opacity: 1;" transform=" matrix(1 0 0 1 0 0) "/>
	<rect x="18.24" y="47.26" rx="0" ry="0" width="16.59" height="2.76" style="stroke: none; stroke-width: 1; stroke-dasharray: none; stroke-linecap: butt; stroke-linejoin: miter; stroke-miterlimit: 10; fill: rgb(255,195,54); fill-rule: nonzero; opacity: 1;" transform=" matrix(1 0 0 1 0 0) "/>
	<rect x="18.24" y="44.55" rx="0" ry="0" width="16.59" height="2.76" style="stroke: none; stroke-width: 1; stroke-dasharray: none; stroke-linecap: butt; stroke-linejoin: miter; stroke-miterlimit: 10; fill: rgb(234,176,40); fill-rule: nonzero; opacity: 1;" transform=" matrix(1 0 0 1 0 0) "/>
	<rect x="18.24" y="41.79" rx="0" ry="0" width="16.59" height="2.76" style="stroke: none; stroke-width: 1; stroke-dasharray: none; stroke-linecap: butt; stroke-linejoin: miter; stroke-miterlimit: 10; fill: rgb(255,195,54); fill-rule: nonzero; opacity: 1;" transform=" matrix(1 0 0 1 0 0) "/>
	<rect x="18.24" y="39.03" rx="0" ry="0" width="16.59" height="2.76" style="stroke: none; stroke-width: 1; stroke-dasharray: none; stroke-linecap: butt; stroke-linejoin: miter; stroke-miterlimit: 10; fill: rgb(234,176,40); fill-rule: nonzero; opacity: 1;" transform=" matrix(1 0 0 1 0 0) "/>
	<rect x="18.24" y="36.27" rx="0" ry="0" width="16.59" height="2.76" style="stroke: none; stroke-width: 1; stroke-dasharray: none; stroke-linecap: butt; stroke-linejoin: miter; stroke-miterlimit: 10; fill: rgb(255,195,54); fill-rule: nonzero; opacity: 1;" transform=" matrix(1 0 0 1 0 0) "/>
	<rect x="38.53" y="64.51" rx="0" ry="0" width="16.59" height="2.76" style="stroke: none; stroke-width: 1; stroke-dasharray: none; stroke-linecap: butt; stroke-linejoin: miter; stroke-miterlimit: 10; fill: rgb(234,176,40); fill-rule: nonzero; opacity: 1;" transform=" matrix(1 0 0 1 0 0) "/>
	<rect x="38.53" y="61.75" rx="0" ry="0" width="16.59" height="2.76" style="stroke: none; stroke-width: 1; stroke-dasharray: none; stroke-linecap: butt; stroke-linejoin: miter; stroke-miterlimit: 10; fill: rgb(255,195,54); fill-rule: nonzero; opacity: 1;" transform=" matrix(1 0 0 1 0 0) "/>
	<rect x="38.53" y="58.99" rx="0" ry="0" width="16.59" height="2.76" style="stroke: none; stroke-width: 1; stroke-dasharray: none; stroke-linecap: butt; stroke-linejoin: miter; stroke-miterlimit: 10; fill: rgb(234,176,40); fill-rule: nonzero; opacity: 1;" transform=" matrix(1 0 0 1 0 0) "/>
	<rect x="38.53" y="56.23" rx="0" ry="0" width="16.59" height="2.76" style="stroke: none; stroke-width: 1; stroke-dasharray: none; stroke-linecap: butt; stroke-linejoin: miter; stroke-miterlimit: 10; fill: rgb(255,195,54); fill-rule: nonzero; opacity: 1;" transform=" matrix(1 0 0 1 0 0) "/>
	<rect x="38.53" y="53.47" rx="0" ry="0" width="16.59" height="2.76" style="stroke: none; stroke-width: 1; stroke-dasharray: none; stroke-linecap: butt; stroke-linejoin: miter; stroke-miterlimit: 10; fill: rgb(234,176,40); fill-rule: nonzero; opacity: 1;" transform=" matrix(1 0 0 1 0 0) "/>
	<rect x="38.53" y="50.71" rx="0" ry="0" width="16.59" height="2.76" style="stroke: none; stroke-width: 1; stroke-dasharray: none; stroke-linecap: butt; stroke-linejoin: miter; stroke-miterlimit: 10; fill: rgb(255,195,54); fill-rule: nonzero; opacity: 1;" transform=" matrix(1 0 0 1 0 0) "/>
	<rect x="38.53" y="47.95" rx="0" ry="0" width="16.59" height="2.76" style="stroke: none; stroke-width: 1; stroke-dasharray: none; stroke-linecap: butt; stroke-linejoin: miter; stroke-miterlimit: 10; fill: rgb(234,176,40); fill-rule: nonzero; opacity: 1;" transform=" matrix(1 0 0 1 0 0) "/>
	<rect x="38.53" y="45.19" rx="0" ry="0" width="16.59" height="2.76" style="stroke: none; stroke-width: 1; stroke-dasharray: none; stroke-linecap: butt; stroke-linejoin: miter; stroke-miterlimit: 10; fill: rgb(255,195,54); fill-rule: nonzero; opacity: 1;" transform=" matrix(1 0 0 1 0 0) "/>
	<rect x="38.53" y="42.49" rx="0" ry="0" width="16.59" height="2.76" style="stroke: none; stroke-width: 1; stroke-dasharray: none; stroke-linecap: butt; stroke-linejoin: miter; stroke-miterlimit: 10; fill: rgb(234,176,40); fill-rule: nonzero; opacity: 1;" transform=" matrix(1 0 0 1 0 0) "/>
	<rect x="38.53" y="39.73" rx="0" ry="0" width="16.59" height="2.76" style="stroke: none; stroke-width: 1; stroke-dasharray: none; stroke-linecap: butt; stroke-linejoin: miter; stroke-miterlimit: 10; fill: rgb(255,195,54); fill-rule: nonzero; opacity: 1;" transform=" matrix(1 0 0 1 0 0) "/>
	<rect x="38.53" y="36.97" rx="0" ry="0" width="16.59" height="2.76" style="stroke: none; stroke-width: 1; stroke-dasharray: none; stroke-linecap: butt; stroke-linejoin: miter; stroke-miterlimit: 10; fill: rgb(234,176,40); fill-rule: nonzero; opacity: 1;" transform=" matrix(1 0 0 1 0 0) "/>
	<rect x="38.53" y="34.21" rx="0" ry="0" width="16.59" height="2.76" style="stroke: none; stroke-width: 1; stroke-dasharray: none; stroke-linecap: butt; stroke-linejoin: miter; stroke-miterlimit: 10; fill: rgb(255,195,54); fill-rule: nonzero; opacity: 1;" transform=" matrix(1 0 0 1 0 0) "/>
	<rect x="38.53" y="31.42" rx="0" ry="0" width="16.59" height="2.76" style="stroke: none; stroke-width: 1; stroke-dasharray: none; stroke-linecap: butt; stroke-linejoin: miter; stroke-miterlimit: 10; fill: rgb(234,176,40); fill-rule: nonzero; opacity: 1;" transform=" matrix(1 0 0 1 0 0) "/>
	<rect x="38.53" y="28.66" rx="0" ry="0" width="16.59" height="2.76" style="stroke: none; stroke-width: 1; stroke-dasharray: none; stroke-linecap: butt; stroke-linejoin: miter; stroke-miterlimit: 10; fill: rgb(255,195,54); fill-rule: nonzero; opacity: 1;" transform=" matrix(1 0 0 1 0 0) "/>
	<rect x="38.53" y="25.95" rx="0" ry="0" width="16.59" height="2.76" style="stroke: none; stroke-width: 1; stroke-dasharray: none; stroke-linecap: butt; stroke-linejoin: miter; stroke-miterlimit: 10; fill: rgb(234,176,40); fill-rule: nonzero; opacity: 1;" transform=" matrix(1 0 0 1 0 0) "/>
	<rect x="38.53" y="23.19" rx="0" ry="0" width="16.59" height="2.76" style="stroke: none; stroke-width: 1; stroke-dasharray: none; stroke-linecap: butt; stroke-linejoin: miter; stroke-miterlimit: 10; fill: rgb(255,195,54); fill-rule: nonzero; opacity: 1;" transform=" matrix(1 0 0 1 0 0) "/>
	<rect x="38.53" y="20.43" rx="0" ry="0" width="16.59" height="2.76" style="stroke: none; stroke-width: 1; stroke-dasharray: none; stroke-linecap: butt; stroke-linejoin: miter; stroke-miterlimit: 10; fill: rgb(234,176,40); fill-rule: nonzero; opacity: 1;" transform=" matrix(1 0 0 1 0 0) "/>
	<rect x="38.53" y="17.67" rx="0" ry="0" width="16.59" height="2.76" style="stroke: none; stroke-width: 1; stroke-dasharray: none; stroke-linecap: butt; stroke-linejoin: miter; stroke-miterlimit: 10; fill: rgb(255,195,54); fill-rule: nonzero; opacity: 1;" transform=" matrix(1 0 0 1 0 0) "/>
	<rect x="58.82" y="67.22" rx="0" ry="0" width="16.59" height="2.76" style="stroke: none; stroke-width: 1; stroke-dasharray: none; stroke-linecap: butt; stroke-linejoin: miter; stroke-miterlimit: 10; fill: rgb(255,195,54); fill-rule: nonzero; opacity: 1;" transform=" matrix(1 0 0 1 0 0) "/>
	<rect x="58.82" y="64.46" rx="0" ry="0" width="16.59" height="2.76" style="stroke: none; stroke-width: 1; stroke-dasharray: none; stroke-linecap: butt; stroke-linejoin: miter; stroke-miterlimit: 10; fill: rgb(234,176,40); fill-rule: nonzero; opacity: 1;" transform=" matrix(1 0 0 1 0 0) "/>
	<rect x="58.82" y="61.7" rx="0" ry="0" width="16.59" height="2.76" style="stroke: none; stroke-width: 1; stroke-dasharray: none; stroke-linecap: butt; stroke-linejoin: miter; stroke-miterlimit: 10; fill: rgb(255,195,54); fill-rule: nonzero; opacity: 1;" transform=" matrix(1 0 0 1 0 0) "/>
	<rect x="58.82" y="58.94" rx="0" ry="0" width="16.59" height="2.76" style="stroke: none; stroke-width: 1; stroke-dasharray: none; stroke-linecap: butt; stroke-linejoin: miter; stroke-miterlimit: 10; fill: rgb(234,176,40); fill-rule: nonzero; opacity: 1;" transform=" matrix(1 0 0 1 0 0) "/>
	<rect x="58.82" y="56.18" rx="0" ry="0" width="16.59" height="2.76" style="stroke: none; stroke-width: 1; stroke-dasharray: none; stroke-linecap: butt; stroke-linejoin: miter; stroke-miterlimit: 10; fill: rgb(255,195,54); fill-rule: nonzero; opacity: 1;" transform=" matrix(1 0 0 1 0 0) "/>
	<rect x="58.82" y="53.48" rx="0" ry="0" width="16.59" height="2.76" style="stroke: none; stroke-width: 1; stroke-dasharray: none; stroke-linecap: butt; stroke-linejoin: miter; stroke-miterlimit: 10; fill: rgb(234,176,40); fill-rule: nonzero; opacity: 1;" transform=" matrix(1 0 0 1 0 0) "/>
	<rect x="58.82" y="50.72" rx="0" ry="0" width="16.59" height="2.76" style="stroke: none; stroke-width: 1; stroke-dasharray: none; stroke-linecap: butt; stroke-linejoin: miter; stroke-miterlimit: 10; fill: rgb(255,195,54); fill-rule: nonzero; opacity: 1;" transform=" matrix(1 0 0 1 0 0) "/>
	<rect x="58.82" y="47.96" rx="0" ry="0" width="16.59" height="2.76" style="stroke: none; stroke-width: 1; stroke-dasharray: none; stroke-linecap: butt; stroke-linejoin: miter; stroke-miterlimit: 10; fill: rgb(234,176,40); fill-rule: nonzero; opacity: 1;" transform=" matrix(1 0 0 1 0 0) "/>
	<rect x="58.82" y="45.2" rx="0" ry="0" width="16.59" height="2.76" style="stroke: none; stroke-width: 1; stroke-dasharray: none; stroke-linecap: butt; stroke-linejoin: miter; stroke-miterlimit: 10; fill: rgb(255,195,54); fill-rule: nonzero; opacity: 1;" transform=" matrix(1 0 0 1 0 0) "/>
	<rect x="58.82" y="42.41" rx="0" ry="0" width="16.59" height="2.76" style="stroke: none; stroke-width: 1; stroke-dasharray: none; stroke-linecap: butt; stroke-linejoin: miter; stroke-miterlimit: 10; fill: rgb(234,176,40); fill-rule: nonzero; opacity: 1;" transform=" matrix(1 0 0 1 0 0) "/>
	<rect x="58.82" y="39.65" rx="0" ry="0" width="16.59" height="2.76" style="stroke: none; stroke-width: 1; stroke-dasharray: none; stroke-linecap: butt; stroke-linejoin: miter; stroke-miterlimit: 10; fill: rgb(255,195,54); fill-rule: nonzero; opacity: 1;" transform=" matrix(1 0 0 1 0 0) "/>
	<rect x="58.82" y="36.94" rx="0" ry="0" width="16.59" height="2.76" style="stroke: none; stroke-width: 1; stroke-dasharray: none; stroke-linecap: butt; stroke-linejoin: miter; stroke-miterlimit: 10; fill: rgb(234,176,40); fill-rule: nonzero; opacity: 1;" transform=" matrix(1 0 0 1 0 0) "/>
	<rect x="58.82" y="34.18" rx="0" ry="0" width="16.59" height="2.76" style="stroke: none; stroke-width: 1; stroke-dasharray: none; stroke-linecap: butt; stroke-linejoin: miter; stroke-miterlimit: 10; fill: rgb(255,195,54); fill-rule: nonzero; opacity: 1;" transform=" matrix(1 0 0 1 0 0) "/>
	<rect x="58.82" y="31.42" rx="0" ry="0" width="16.59" height="2.76" style="stroke: none; stroke-width: 1; stroke-dasharray: none; stroke-linecap: butt; stroke-linejoin: miter; stroke-miterlimit: 10; fill: rgb(234,176,40); fill-rule: nonzero; opacity: 1;" transform=" matrix(1 0 0 1 0 0) "/>
	<rect x="58.82" y="28.66" rx="0" ry="0" width="16.59" height="2.76" style="stroke: none; stroke-width: 1; stroke-dasharray: none; stroke-linecap: butt; stroke-linejoin: miter; stroke-miterlimit: 10; fill: rgb(255,195,54); fill-rule: nonzero; opacity: 1;" transform=" matrix(1 0 0 1 0 0) "/>
	<rect x="25.68" y="47.98" rx="0" ry="0" width="64.32" height="33.07" style="stroke: none; stroke-width: 1; stroke-dasharray: none; stroke-linecap: butt; stroke-linejoin: miter; stroke-miterlimit: 10; fill: rgb(68,155,56); fill-rule: nonzero; opacity: 1;" transform=" matrix(1 0 0 1 0 0) "/>
	<path d="M 79.694 52.76 H 35.997 c 0 3.055 -2.476 5.531 -5.531 5.531 v 12.444 c 3.055 0 5.531 2.476 5.531 5.531 h 43.697 c -0.002 -0.055 -0.008 -0.109 -0.008 -0.165 c 0 -3.055 2.476 -5.531 5.531 -5.531 V 58.125 C 82.217 58.125 79.782 55.737 79.694 52.76 z" style="stroke: none; stroke-width: 1; stroke-dasharray: none; stroke-linecap: butt; stroke-linejoin: miter; stroke-miterlimit: 10; fill: rgb(98,199,81); fill-rule: nonzero; opacity: 1;" transform=" matrix(1 0 0 1 0 0) " stroke-linecap="round" />
	<circle cx="57.845" cy="64.515" r="9.845" style="stroke: none; stroke-width: 1; stroke-dasharray: none; stroke-linecap: butt; stroke-linejoin: miter; stroke-miterlimit: 10; fill: rgb(68,155,56); fill-rule: nonzero; opacity: 1;" transform="  matrix(1 0 0 1 0 0) "/>
	<circle cx="42.629" cy="64.509" r="1.969" style="stroke: none; stroke-width: 1; stroke-dasharray: none; stroke-linecap: butt; stroke-linejoin: miter; stroke-miterlimit: 10; fill: rgb(68,155,56); fill-rule: nonzero; opacity: 1;" transform="  matrix(1 0 0 1 0 0) "/>
	<circle cx="73.04899999999999" cy="64.509" r="1.969" style="stroke: none; stroke-width: 1; stroke-dasharray: none; stroke-linecap: butt; stroke-linejoin: miter; stroke-miterlimit: 10; fill: rgb(68,155,56); fill-rule: nonzero; opacity: 1;" transform="  matrix(1 0 0 1 0 0) "/>
	<path d="M 57.763 69.692 c -1.5 0 -2.826 -0.795 -3.377 -2.025 l 1.957 -0.877 c 0.2 0.446 0.783 0.757 1.42 0.757 c 0.636 0 1.221 -0.311 1.42 -0.757 c 0.064 -0.156 0.082 -0.294 0.042 -0.378 c -0.062 -0.13 -0.35 -0.474 -1.69 -0.873 c -1.115 -0.333 -2.465 -0.861 -3.011 -2.003 c -0.215 -0.449 -0.388 -1.186 0.005 -2.147 c 0.564 -1.262 1.89 -2.057 3.39 -2.057 c 1.5 0 2.825 0.795 3.377 2.025 l -1.957 0.877 c -0.2 -0.446 -0.784 -0.758 -1.42 -0.758 c -0.636 0 -1.22 0.312 -1.42 0.758 c -0.064 0.156 -0.082 0.293 -0.042 0.378 c 0.062 0.129 0.35 0.474 1.69 0.873 c 1.115 0.333 2.466 0.861 3.011 2.002 c 0.215 0.449 0.388 1.186 -0.006 2.147 C 60.589 68.897 59.263 69.692 57.763 69.692 z" style="stroke: none; stroke-width: 1; stroke-dasharray: none; stroke-linecap: butt; stroke-linejoin: miter; stroke-miterlimit: 10; fill: rgb(98,199,81); fill-rule: nonzero; opacity: 1;" transform=" matrix(1 0 0 1 0 0) " stroke-linecap="round" />
	<rect x="56.69" y="68.62" rx="0" ry="0" width="2.14" height="2.48" style="stroke: none; stroke-width: 1; stroke-dasharray: none; stroke-linecap: butt; stroke-linejoin: miter; stroke-miterlimit: 10; fill: rgb(98,199,81); fill-rule: nonzero; opacity: 1;" transform=" matrix(1 0 0 1 0 0) "/>
	<rect x="56.69" y="57.92" rx="0" ry="0" width="2.14" height="2.48" style="stroke: none; stroke-width: 1; stroke-dasharray: none; stroke-linecap: butt; stroke-linejoin: miter; stroke-miterlimit: 10; fill: rgb(98,199,81); fill-rule: nonzero; opacity: 1;" transform=" matrix(1 0 0 1 0 0) "/>
	<circle cx="31.855" cy="54.085" r="1.385" style="stroke: none; stroke-width: 1; stroke-dasharray: none; stroke-linecap: butt; stroke-linejoin: miter; stroke-miterlimit: 10; fill: rgb(98,199,81); fill-rule: nonzero; opacity: 1;" transform="  matrix(1 0 0 1 0 0) "/>
	<circle cx="31.855" cy="74.885" r="1.385" style="stroke: none; stroke-width: 1; stroke-dasharray: none; stroke-linecap: butt; stroke-linejoin: miter; stroke-miterlimit: 10; fill: rgb(98,199,81); fill-rule: nonzero; opacity: 1;" transform="  matrix(1 0 0 1 0 0) "/>
	<circle cx="83.83500000000001" cy="54.114999999999995" r="1.385" style="stroke: none; stroke-width: 1; stroke-dasharray: none; stroke-linecap: butt; stroke-linejoin: miter; stroke-miterlimit: 10; fill: rgb(98,199,81); fill-rule: nonzero; opacity: 1;" transform="  matrix(1 0 0 1 0 0) "/>
	<circle cx="83.83500000000001" cy="74.915" r="1.385" style="stroke: none; stroke-width: 1; stroke-dasharray: none; stroke-linecap: butt; stroke-linejoin: miter; stroke-miterlimit: 10; fill: rgb(98,199,81); fill-rule: nonzero; opacity: 1;" transform="  matrix(1 0 0 1 0 0) "/>
	<circle cx="23.752" cy="67.372" r="8.392" style="stroke: none; stroke-width: 1; stroke-dasharray: none; stroke-linecap: butt; stroke-linejoin: miter; stroke-miterlimit: 10; fill: rgb(234,176,40); fill-rule: nonzero; opacity: 1;" transform="  matrix(1 0 0 1 0 0) "/>
	<circle cx="23.75" cy="67.37" r="6.8" style="stroke: none; stroke-width: 1; stroke-dasharray: none; stroke-linecap: butt; stroke-linejoin: miter; stroke-miterlimit: 10; fill: rgb(255,195,54); fill-rule: nonzero; opacity: 1;" transform="  matrix(1 0 0 1 0 0) "/>
	<path d="M 23.699 70.945 c -1.036 0 -1.952 -0.549 -2.333 -1.399 l 1.352 -0.606 c 0.138 0.308 0.541 0.523 0.981 0.523 s 0.843 -0.215 0.981 -0.523 c 0.044 -0.108 0.056 -0.203 0.029 -0.261 c -0.043 -0.09 -0.242 -0.327 -1.168 -0.603 c -0.77 -0.23 -1.703 -0.595 -2.08 -1.383 c -0.148 -0.31 -0.268 -0.82 0.004 -1.483 c 0.39 -0.872 1.306 -1.421 2.342 -1.421 c 1.036 0 1.952 0.549 2.333 1.399 l -1.352 0.606 c -0.138 -0.308 -0.542 -0.524 -0.981 -0.524 c -0.44 0 -0.843 0.215 -0.981 0.523 c -0.044 0.108 -0.057 0.203 -0.029 0.261 c 0.043 0.089 0.242 0.327 1.167 0.603 c 0.77 0.23 1.703 0.595 2.08 1.383 c 0.148 0.31 0.268 0.82 -0.004 1.483 C 25.651 70.396 24.736 70.945 23.699 70.945 z" style="stroke: none; stroke-width: 1; stroke-dasharray: none; stroke-linecap: butt; stroke-linejoin: miter; stroke-miterlimit: 10; fill: rgb(200,147,24); fill-rule: nonzero; opacity: 1;" transform=" matrix(1 0 0 1 0 0) " stroke-linecap="round" />
	<rect x="22.96" y="70.2" rx="0" ry="0" width="1.48" height="1.72" style="stroke: none; stroke-width: 1; stroke-dasharray: none; stroke-linecap: butt; stroke-linejoin: miter; stroke-miterlimit: 10; fill: rgb(200,147,24); fill-rule: nonzero; opacity: 1;" transform=" matrix(1 0 0 1 0 0) "/>
	<rect x="22.96" y="62.82" rx="0" ry="0" width="1.48" height="1.72" style="stroke: none; stroke-width: 1; stroke-dasharray: none; stroke-linecap: butt; stroke-linejoin: miter; stroke-miterlimit: 10; fill: rgb(200,147,24); fill-rule: nonzero; opacity: 1;" transform=" matrix(1 0 0 1 0 0) "/>
	<circle cx="26.752" cy="74.85199999999999" r="8.392" style="stroke: none; stroke-width: 1; stroke-dasharray: none; stroke-linecap: butt; stroke-linejoin: miter; stroke-miterlimit: 10; fill: rgb(234,176,40); fill-rule: nonzero; opacity: 1;" transform="  matrix(1 0 0 1 0 0) "/>
	<circle cx="26.75" cy="74.85" r="6.8" style="stroke: none; stroke-width: 1; stroke-dasharray: none; stroke-linecap: butt; stroke-linejoin: miter; stroke-miterlimit: 10; fill: rgb(255,195,54); fill-rule: nonzero; opacity: 1;" transform="  matrix(1 0 0 1 0 0) "/>
	<path d="M 26.694 78.43 c -1.036 0 -1.952 -0.549 -2.333 -1.399 l 1.352 -0.606 c 0.138 0.308 0.541 0.523 0.981 0.523 s 0.843 -0.215 0.981 -0.523 c 0.044 -0.108 0.056 -0.203 0.029 -0.261 c -0.043 -0.09 -0.242 -0.327 -1.168 -0.603 c -0.77 -0.23 -1.703 -0.595 -2.08 -1.383 c -0.148 -0.31 -0.268 -0.82 0.004 -1.483 c 0.39 -0.872 1.306 -1.421 2.342 -1.421 c 1.036 0 1.952 0.549 2.333 1.399 l -1.352 0.606 c -0.138 -0.308 -0.542 -0.524 -0.981 -0.524 c -0.44 0 -0.843 0.215 -0.981 0.523 c -0.044 0.108 -0.057 0.203 -0.029 0.261 c 0.043 0.089 0.242 0.327 1.167 0.603 c 0.77 0.23 1.703 0.595 2.08 1.383 c 0.148 0.31 0.268 0.82 -0.004 1.483 C 28.646 77.881 27.73 78.43 26.694 78.43 z" style="stroke: none; stroke-width: 1; stroke-dasharray: none; stroke-linecap: butt; stroke-linejoin: miter; stroke-miterlimit: 10; fill: rgb(200,147,24); fill-rule: nonzero; opacity: 1;" transform=" matrix(1 0 0 1 0 0) " stroke-linecap="round" />
	<rect x="25.95" y="77.69" rx="0" ry="0" width="1.48" height="1.72" style="stroke: none; stroke-width: 1; stroke-dasharray: none; stroke-linecap: butt; stroke-linejoin: miter; stroke-miterlimit: 10; fill: rgb(200,147,24); fill-rule: nonzero; opacity: 1;" transform=" matrix(1 0 0 1 0 0) "/>
	<rect x="25.95" y="70.3" rx="0" ry="0" width="1.48" height="1.72" style="stroke: none; stroke-width: 1; stroke-dasharray: none; stroke-linecap: butt; stroke-linejoin: miter; stroke-miterlimit: 10; fill: rgb(200,147,24); fill-rule: nonzero; opacity: 1;" transform=" matrix(1 0 0 1 0 0) "/>
	<circle cx="14.672" cy="74.85199999999999" r="8.392" style="stroke: none; stroke-width: 1; stroke-dasharray: none; stroke-linecap: butt; stroke-linejoin: miter; stroke-miterlimit: 10; fill: rgb(234,176,40); fill-rule: nonzero; opacity: 1;" transform="  matrix(1 0 0 1 0 0) "/>
	<circle cx="14.68" cy="74.85" r="6.8" style="stroke: none; stroke-width: 1; stroke-dasharray: none; stroke-linecap: butt; stroke-linejoin: miter; stroke-miterlimit: 10; fill: rgb(255,195,54); fill-rule: nonzero; opacity: 1;" transform="  matrix(1 0 0 1 0 0) "/>
	<path d="M 14.621 78.43 c -1.036 0 -1.952 -0.549 -2.333 -1.399 l 1.352 -0.606 c 0.138 0.308 0.541 0.523 0.981 0.523 c 0.44 0 0.843 -0.215 0.981 -0.523 c 0.044 -0.108 0.056 -0.203 0.029 -0.261 c -0.043 -0.09 -0.242 -0.327 -1.168 -0.603 c -0.77 -0.23 -1.703 -0.595 -2.08 -1.383 c -0.148 -0.31 -0.268 -0.82 0.004 -1.483 c 0.39 -0.872 1.306 -1.421 2.342 -1.421 c 1.036 0 1.952 0.549 2.333 1.399 l -1.352 0.606 c -0.138 -0.308 -0.542 -0.524 -0.981 -0.524 c -0.44 0 -0.843 0.215 -0.981 0.523 c -0.044 0.108 -0.057 0.203 -0.029 0.261 c 0.043 0.089 0.242 0.327 1.167 0.603 c 0.77 0.23 1.703 0.595 2.08 1.383 c 0.148 0.31 0.268 0.82 -0.004 1.483 C 16.573 77.881 15.657 78.43 14.621 78.43 z" style="stroke: none; stroke-width: 1; stroke-dasharray: none; stroke-linecap: butt; stroke-linejoin: miter; stroke-miterlimit: 10; fill: rgb(200,147,24); fill-rule: nonzero; opacity: 1;" transform=" matrix(1 0 0 1 0 0) " stroke-linecap="round" />
	<rect x="13.88" y="77.69" rx="0" ry="0" width="1.48" height="1.72" style="stroke: none; stroke-width: 1; stroke-dasharray: none; stroke-linecap: butt; stroke-linejoin: miter; stroke-miterlimit: 10; fill: rgb(200,147,24); fill-rule: nonzero; opacity: 1;" transform=" matrix(1 0 0 1 0 0) "/>
	<rect x="13.88" y="70.3" rx="0" ry="0" width="1.48" height="1.72" style="stroke: none; stroke-width: 1; stroke-dasharray: none; stroke-linecap: butt; stroke-linejoin: miter; stroke-miterlimit: 10; fill: rgb(200,147,24); fill-rule: nonzero; opacity: 1;" transform=" matrix(1 0 0 1 0 0) "/>
	<path d="M 8.606 42.87 c 0 -2.182 -1.769 -3.952 -3.952 -3.952 c 2.182 0 3.952 -1.769 3.952 -3.952 c 0 2.182 1.769 3.952 3.952 3.952 C 10.376 38.918 8.606 40.687 8.606 42.87 z" style="stroke: none; stroke-width: 1; stroke-dasharray: none; stroke-linecap: butt; stroke-linejoin: miter; stroke-miterlimit: 10; fill: rgb(255,195,54); fill-rule: nonzero; opacity: 1;" transform=" matrix(1 0 0 1 0 0) " stroke-linecap="round" />
	<path d="M 26.215 31.382 c 0 -2.883 -2.337 -5.22 -5.22 -5.22 c 2.883 0 5.22 -2.337 5.22 -5.22 c 0 2.883 2.337 5.22 5.22 5.22 C 28.552 26.162 26.215 28.499 26.215 31.382 z M 13.224 20.931 c -1.538 0 -2.785 -1.247 -2.785 -2.785 c 0 1.538 -1.247 2.785 -2.785 2.785 c 1.538 0 2.785 1.247 2.785 2.785 C 10.439 22.178 11.686 20.931 13.224 20.931 z M 70.537 15.927 c -2.883 0 -5.22 -2.337 -5.22 -5.22 c 0 2.883 -2.337 5.22 -5.22 5.22 c 2.883 0 5.22 2.337 5.22 5.22 C 65.318 18.264 67.655 15.927 70.537 15.927 z M 44.614 10.707 c -2.182 0 -3.952 -1.769 -3.952 -3.952 c 0 2.182 -1.769 3.952 -3.952 3.952 c 2.182 0 3.952 1.769 3.952 3.952 C 40.662 12.477 42.431 10.707 44.614 10.707 z M 82.446 21.146 c -1.538 0 -2.785 -1.247 -2.785 -2.785 c 0 1.538 -1.247 2.785 -2.785 2.785 c 1.538 0 2.785 1.247 2.785 2.785 C 79.661 22.393 80.908 21.146 82.446 21.146 z M 87.783 38.323 c -2.182 0 -3.952 -1.769 -3.952 -3.952 c 0 2.182 -1.769 3.952 -3.952 3.952 c 2.182 0 3.952 1.769 3.952 3.952 C 83.831 40.092 85.6 38.323 87.783 38.323 z" style="stroke: none; stroke-width: 1; stroke-dasharray: none; stroke-linecap: butt; stroke-linejoin: miter; stroke-miterlimit: 10; fill: rgb(255,195,54); fill-rule: nonzero; opacity: 1;" transform=" matrix(1 0 0 1 0 0) " stroke-linecap="round" />
</g>
</svg>